<?xml version="1.0" encoding="UTF-8"?>
<svg width="14px" height="10px" viewBox="0 0 14 10" version="1.1" xmlns="http://www.w3.org/2000/svg" xmlns:xlink="http://www.w3.org/1999/xlink">
    <!-- Generator: Sketch 47.1 (45422) - http://www.bohemiancoding.com/sketch -->
    <title>Family Protection-icon-small</title>
    <desc>Created with Sketch.</desc>
    <defs></defs>
    <g id="Insurance-Quote" stroke="none" stroke-width="1" fill="none" fill-rule="evenodd">
        <g id="icons" transform="translate(-652.000000, -159.000000)">
            <g id="Group-6" transform="translate(38.000000, 47.000000)">
                <g id="Small" transform="translate(521.000000, 29.000000)">
                    <g id="Family-Protection-icon-small" transform="translate(93.000000, 83.000000)">
                        <path d="M0.673631164,10 C0.241691045,9.09074462 0,8.07359729 0,7 C0,3.13400675 3.13400675,0 7,0 C10.8659932,0 14,3.13400675 14,7 C14,8.07359729 13.758309,9.09074462 13.3263688,10 L11.2288722,10 L11.2288722,8.89539252 L11.8391038,8.89539252 L11.3140774,7.48839363 L11.3140774,6.43995015 L12.0914736,7.29595418 L12.6,6.91630728 L11.3140774,5.50007064 L11.3140774,5.49393939 L11.3084872,5.49393939 L11.308397,5.49393939 L10.8310675,5.49393939 L9.9945235,5.49393939 L9.51142342,5.49393939 L9.51142342,5.50015239 L8.2255008,6.91638903 L8.31124701,6.98039926 L7.70759732,7.48921113 L7.48786703,7.48921113 L6.9975538,7.48921113 L6.77845466,7.48921113 L6.16569838,6.97271476 L6.24116586,6.91638903 L4.95524325,5.50015239 L4.95524325,5.49393939 L4.47223333,5.49393939 L3.6355992,5.49393939 L3.15258928,5.49393939 L3.15258928,5.50015239 L1.86666667,6.91638903 L2.37519307,7.29587243 L3.15258928,6.43978665 L3.15258928,8.14639921 L3.15258928,10 L0.673631164,10 Z M10.5701321,10 L10.2553687,10 L10.2553687,8.89539252 L10.5701321,8.89539252 L10.5701321,10 Z M9.59662864,10 L7.77098279,10 L7.77098279,9.62133233 L8.12091027,9.62133233 L7.77098279,8.48141063 L7.77098279,7.91373877 L8.6119448,7.20480295 L8.73393704,7.29587243 L9.51142342,6.43978665 L9.51142342,7.48839363 L8.98639696,8.89539252 L9.59662864,8.89539252 L9.59662864,10 Z M7.27661218,10 L7.21007096,10 L7.21007096,9.62133233 L7.27661218,9.62133233 L7.27661218,10 Z M6.71443804,10 L4.95524325,10 L4.95524325,8.14639921 L4.95524325,8.11468022 L4.95524325,6.43978665 L5.73263946,7.29587243 L5.86500059,7.19711846 L6.71443804,7.91316652 L6.71443804,8.48141063 L6.3644204,9.62133233 L6.71443804,9.62133233 L6.71443804,10 Z M4.11193696,10 L3.99823984,10 L3.99823984,8.14639921 L4.11193696,8.14639921 L4.11193696,10 Z M4.14343434,5.17575758 C4.68233037,5.17575758 5.11919192,4.74839302 5.11919192,4.22121212 C5.11919192,3.69403122 4.68233037,3.26666667 4.14343434,3.26666667 C3.60453831,3.26666667 3.16767677,3.69403122 3.16767677,4.22121212 C3.16767677,4.74839302 3.60453831,5.17575758 4.14343434,5.17575758 Z M10.3232323,5.17575758 C10.8621284,5.17575758 11.2989899,4.74839302 11.2989899,4.22121212 C11.2989899,3.69403122 10.8621284,3.26666667 10.3232323,3.26666667 C9.78433629,3.26666667 9.34747475,3.69403122 9.34747475,4.22121212 C9.34747475,4.74839302 9.78433629,5.17575758 10.3232323,5.17575758 Z M7.23333333,7.4030303 C7.50278135,7.4030303 7.72121212,7.18934802 7.72121212,6.92575758 C7.72121212,6.66216713 7.50278135,6.44848485 7.23333333,6.44848485 C6.96388532,6.44848485 6.74545455,6.66216713 6.74545455,6.92575758 C6.74545455,7.18934802 6.96388532,7.4030303 7.23333333,7.4030303 Z" id="Combined-Shape" fill="#D76CAB"></path>
                        <g id="Group-18" transform="translate(2.000000, 4.000000)"></g>
                    </g>
                </g>
            </g>
        </g>
    </g>
</svg>