<?xml version="1.0" encoding="UTF-8"?>
<svg width="13px" height="12px" viewBox="0 0 13 12" version="1.1" xmlns="http://www.w3.org/2000/svg" xmlns:xlink="http://www.w3.org/1999/xlink">
    <!-- Generator: Sketch 47.1 (45422) - http://www.bohemiancoding.com/sketch -->
    <title>Health Cover-icon-small</title>
    <desc>Created with Sketch.</desc>
    <defs></defs>
    <g id="Insurance-Quote" stroke="none" stroke-width="1" fill="none" fill-rule="evenodd">
        <g id="icons" transform="translate(-559.000000, -118.000000)" fill-rule="nonzero" fill="#60B0DB">
            <g id="Group-6" transform="translate(38.000000, 47.000000)">
                <g id="Small" transform="translate(521.000000, 29.000000)">
                    <g id="Health-Cover-icon-small" transform="translate(0.000000, 42.000000)">
                        <g id="Health">
                            <polygon id="Shape" points="7.96774194 7.19911685 6.9408056 7.19911685 6.9408056 6 6.0591944 6 6.0591944 7.19911685 5.03225806 7.19911685 5.03225806 8.22920926 6.0591944 8.22920926 6.0591944 9.42857143 6.9408056 9.42857143 6.9408056 8.22920926 7.96774194 8.22920926"></polygon>
                            <path d="M9.22580645,2.14285714 L8.12687925,2.14285714 L8.12687925,1.23694526 C8.12687925,1.11935189 8.02396968,1.02350525 7.89771087,1.02350525 L5.10250532,1.02350525 C4.97624652,1.02350525 4.87312075,1.11935189 4.87312075,1.23694526 L4.87312075,2.14285714 L3.77419355,2.14285714 L3.77419355,1.23694526 C3.77419355,0.554944022 4.37003132,0 5.10228913,0 L7.89749468,0 C8.62975249,0 9.22559026,0.554944022 9.22559026,1.23694526 L9.22559026,2.14285714 L9.22580645,2.14285714 Z" id="Shape"></path>
                            <g id="Group" transform="translate(0.000000, 2.571429)">
                                <path d="M4.05820339,4.53284321 C4.14832203,3.20617422 5.20528814,2.15868293 6.49911864,2.15868293 C7.79294915,2.15868293 8.84991525,3.20640418 8.9400339,4.53284321 L12.9909661,4.53284321 L12.9909661,1.73324739 C12.9909661,0.818216028 12.2801525,0.0765783972 11.4036441,0.0765783972 L11.0837119,0.0765783972 L11.0837119,0.588020906 L10.3546102,0.588020906 L10.3546102,0.0765783972 L2.84788136,0.0765783972 L2.84788136,0.588020906 L2.11877966,0.588020906 L2.11877966,0.0765783972 L1.59459322,0.0765783972 C0.717864407,0.0765783972 0.00727118644,0.818445993 0.00727118644,1.73324739 L0.00727118644,4.53284321 L4.05820339,4.53284321 Z" id="Shape"></path>
                                <g id="Group-14" transform="translate(0.000000, 4.714286)">
                                    <path d="M8.9400339,0.18374216 C8.84991525,1.51041115 7.79294915,2.55790244 6.49911864,2.55790244 C5.2050678,2.55790244 4.14832203,1.51018118 4.05820339,0.18374216 L0.00727118644,0.18374216 L0.00727118644,2.98333798 C0.00727118644,3.89836934 0.717864407,4.64000697 1.59459322,4.64000697 L11.4038644,4.64000697 C12.2805932,4.64000697 12.9911864,3.89813937 12.9911864,2.98333798 L12.9911864,0.18374216 L8.9400339,0.18374216 Z" id="Shape"></path>
                                </g>
                            </g>
                        </g>
                    </g>
                </g>
            </g>
        </g>
    </g>
</svg>