<?xml version="1.0" encoding="UTF-8"?>
<svg width="13px" height="11px" viewBox="0 0 13 11" version="1.1" xmlns="http://www.w3.org/2000/svg" xmlns:xlink="http://www.w3.org/1999/xlink">
    <!-- Generator: Sketch 47.1 (45422) - http://www.bohemiancoding.com/sketch -->
    <title>Life Cover-icon-small</title>
    <desc>Created with Sketch.</desc>
    <defs></defs>
    <g id="Insurance-Quote" stroke="none" stroke-width="1" fill="none" fill-rule="evenodd">
        <g id="icons" transform="translate(-559.000000, -77.000000)" fill-rule="nonzero" fill="#FF7D5E">
            <g id="Group-6" transform="translate(38.000000, 47.000000)">
                <g id="Small" transform="translate(521.000000, 29.000000)">
                    <g id="Life-Cover-icon-small" transform="translate(0.000000, 1.000000)">
                        <path d="M3.60602115,5.39778342 L5.08943327,5.39778342 L6.51794075,3.19103416 L7.62387325,7.20920953 L8.5784951,4.95002001 L9.05580602,6.1893998 L9.87205717,5.10496943 L11.0426895,5.27129079 L12.6315894,5.25396682 C13.1846682,3.98580145 13.1911065,2.62667307 12.1219809,1.30841215 C10.944498,-0.143962473 8.82087488,-0.306618945 7.76311386,0.43137147 C6.71535685,1.162086 6.50021625,2.29938781 6.50021625,2.29938781 C6.50021625,2.29938781 6.28594557,1.16165484 5.2390041,0.430509143 C4.18178678,-0.307858541 2.05816367,-0.146279978 0.879267128,1.30480115 C-2.85168515,5.90003513 6.49804147,11 6.49804147,11 C6.49804147,11 10.4527834,8.84582726 12.1936884,6.07495786 L11.0156135,6.08776467 L10.0557721,5.95130139 L8.93815015,7.43660613 L8.56087934,6.45700241 L7.54106832,8.86979398 L6.36434656,4.59259706 L5.3149041,6.21377224 L3.44466504,6.21377224 C3.29814655,6.3717321 3.08802244,6.47069186 2.85470015,6.47069186 C2.4109884,6.47069186 2.05240031,6.11476645 2.05240031,5.67548202 C2.05240031,5.23619758 2.41089465,4.88008632 2.85470015,4.88008632 C3.19880089,4.88008632 3.49244563,5.09543593 3.60602115,5.39778342 Z" id="Combined-Shape"></path>
                    </g>
                </g>
            </g>
        </g>
    </g>
</svg>