<?xml version="1.0" encoding="UTF-8"?>
<svg width="14px" height="11px" viewBox="0 0 14 11" version="1.1" xmlns="http://www.w3.org/2000/svg" xmlns:xlink="http://www.w3.org/1999/xlink">
    <!-- Generator: Sketch 47.1 (45422) - http://www.bohemiancoding.com/sketch -->
    <title>Mortgage-Protection-icon-small</title>
    <desc>Created with Sketch.</desc>
    <defs></defs>
    <g id="Insurance-Quote" stroke="none" stroke-width="1" fill="none" fill-rule="evenodd">
        <g id="icons" transform="translate(-652.000000, -77.000000)" fill-rule="nonzero" fill="#9CC664">
            <g id="Group-6" transform="translate(38.000000, 47.000000)">
                <g id="Small" transform="translate(521.000000, 29.000000)">
                    <g id="Mortgage-Protection-icon-small" transform="translate(93.000000, 1.000000)">
                        <g id="1490639">
                            <g id="home">
                                <path d="M12.002219,6.3367165 L12.002219,10.4513784 C12.002219,10.7514744 11.7504789,11 11.4465014,11 L8.112196,11 L8.112196,7.70827047 L5.88932574,7.70827047 L5.88932574,11 L2.55502035,11 C2.25104284,11 1.99930278,10.7514744 1.99930278,10.4513784 L1.99930278,6.3367165 C1.99930278,6.31970923 2.00819426,6.30215334 2.00819426,6.28514607 L7.00076087,2.22205459 L11.9933275,6.28514607 C12.002219,6.30215334 12.002219,6.31970923 12.002219,6.3367165 Z M13.938339,5.74530243 L13.3998486,6.37950898 C13.3565027,6.43107941 13.287038,6.46509395 13.2175733,6.4738719 L13.1914545,6.4738719 C13.1219899,6.4738719 13.0614166,6.45686463 13.0091792,6.41407214 L7.00020515,1.4676999 L0.991231118,6.41407214 C0.930657903,6.45686463 0.861193208,6.48264984 0.782837031,6.4738719 C0.713372335,6.46509395 0.64390764,6.43107941 0.60056167,6.37950898 L0.0620713486,5.74530243 C-0.0335120726,5.63393225 -0.0162848281,5.45398436 0.0970815552,5.35962145 L6.34001269,0.225072007 C6.70456341,-0.0750240022 7.29529118,-0.0750240022 7.6598419,0.225072007 L9.77879298,1.97352901 L9.77879298,0.301879029 C9.77879298,0.147716363 9.90049513,0.0275682348 10.0566518,0.0275682348 L11.7238045,0.0275682348 C11.8799611,0.0275682348 12.0016632,0.147716363 12.0016632,0.301879029 L12.0016632,3.79934165 L13.9033288,5.35962145 C14.0161394,5.45398436 14.0333667,5.63393225 13.938339,5.74530243 L13.938339,5.74530243 Z" id="Shape"></path>
                            </g>
                        </g>
                    </g>
                </g>
            </g>
        </g>
    </g>
</svg>