<?xml version="1.0" encoding="UTF-8"?>
<svg width="11px" height="13px" viewBox="0 0 11 13" version="1.1" xmlns="http://www.w3.org/2000/svg" xmlns:xlink="http://www.w3.org/1999/xlink">
    <!-- Generator: Sketch 47.1 (45422) - http://www.bohemiancoding.com/sketch -->
    <title>Premium-Waiver-icon-small</title>
    <desc>Created with Sketch.</desc>
    <defs></defs>
    <g id="Insurance-Quote" stroke="none" stroke-width="1" fill="none" fill-rule="evenodd">
        <g id="icons" transform="translate(-608.000000, -118.000000)" fill="#DEAA6D">
            <g id="Group-6" transform="translate(38.000000, 47.000000)">
                <g id="Small" transform="translate(521.000000, 29.000000)">
                    <g id="Premium-Waiver-icon-small" transform="translate(49.000000, 42.000000)">
                        <g id="1614891">
                            <path d="M4.97568681,3.68507639 C5.01836264,3.65411343 5.06771429,3.62882407 5.1226044,3.60916435 L5.1226044,4.42528472 C4.90892857,4.296375 4.80028571,4.16390278 4.80028571,4.02865972 C4.80028571,3.88462037 4.85913187,3.76868519 4.97568681,3.68507639" id="Fill-3"></path>
                            <path d="M6.2187619,5.8812037 C6.32180952,5.97325694 6.37395238,6.08919213 6.37395238,6.22584259 C6.37395238,6.39904167 6.30319048,6.53784722 6.16319048,6.63935648 C6.09057143,6.69169444 6.00342857,6.73070602 5.90266667,6.75669907 L5.90266667,5.69709722 C6.04414286,5.75858333 6.15066667,5.82006944 6.2187619,5.8812037" id="Fill-4"></path>
                            <path d="M5.50666667,9.20475231 C3.04328571,9.20475231 1.03942857,7.35396759 1.03942857,5.07876157 C1.03942857,2.80355556 3.04328571,0.952770833 5.50666667,0.952770833 C7.97004762,0.952770833 9.97390476,2.80355556 9.97390476,5.07876157 C9.97390476,7.35396759 7.97004762,9.20475231 5.50666667,9.20475231 Z M10.343619,5.78633565 C11.1846667,5.90930787 11.1846667,4.24821528 10.343619,4.3711875 C11.1846667,4.24821528 10.6289048,2.6683125 9.87004762,3.0252662 C10.6289048,2.6683125 9.57180952,1.32415046 8.96966667,1.8802963 C9.57180952,1.32415046 8.11647619,0.347805556 7.73,1.04869444 C8.11647619,0.347805556 6.40590476,-0.165502315 6.2727619,0.611298611 C6.40590476,-0.165502315 4.60742857,-0.165502315 4.74057143,0.611298611 C4.60742857,-0.165502315 2.89685714,0.347805556 3.28333333,1.04869444 C2.89685714,0.347805556 1.44147619,1.32415046 2.04366667,1.8802963 C1.44147619,1.32415046 0.384428571,2.6683125 1.14328571,3.0252662 C0.384428571,2.6683125 -0.171333333,4.24821528 0.669714286,4.3711875 C-0.171333333,4.24821528 -0.171333333,5.90930787 0.669714286,5.78633565 C-0.171333333,5.90930787 0.384428571,7.48921065 1.14328571,7.13225694 C0.384428571,7.48921065 1.44147619,8.83341667 2.04366667,8.276875 C1.69709524,8.59697222 2.03147619,9.05613889 2.45180952,9.25462731 C2.45714286,9.25744213 2.46280952,9.25990509 2.46852381,9.26236806 C2.4742381,9.26518287 2.47995238,9.26764583 2.48604762,9.27046065 C2.78804762,9.40148148 3.12509524,9.39585185 3.28333333,9.1088287 C2.89685714,9.80971759 4.60742857,10.3230255 4.74057143,9.54622454 C4.69,9.84239583 4.91971429,10.0254468 5.21642857,10.0957292 C5.22252381,10.0974884 5.229,10.0988958 5.23542857,10.1003032 C5.24152381,10.1017106 5.24761905,10.1027222 5.25371429,10.1041296 C5.41652381,10.1371597 5.59680952,10.1371597 5.75961905,10.1041296 C5.76571429,10.1027222 5.77180952,10.1017106 5.77785714,10.1003032 C5.78433333,10.0988958 5.79080952,10.0974884 5.79690476,10.0957292 C6.09361905,10.0254468 6.32333333,9.84239583 6.2727619,9.54622454 C6.40590476,10.3230255 8.11647619,9.80971759 7.73,9.1088287 C7.8882381,9.39585185 8.22528571,9.40148148 8.52728571,9.27046065 C8.53338095,9.26764583 8.53909524,9.26518287 8.54480952,9.26236806 C8.55047619,9.25990509 8.55619048,9.25744213 8.56152381,9.25462731 C8.98185714,9.05613889 9.31619048,8.59697222 8.96966667,8.276875 C9.57180952,8.83341667 10.6289048,7.48921065 9.87004762,7.13225694 C10.6289048,7.48921065 11.1846667,5.90930787 10.343619,5.78633565 L10.343619,5.78633565 Z" id="Fill-5"></path>
                            <path d="M4.97568681,3.68507639 C5.01836264,3.65411343 5.06771429,3.62882407 5.1226044,3.60916435 L5.1226044,4.42528472 C4.90892857,4.296375 4.80028571,4.16390278 4.80028571,4.02865972 C4.80028571,3.88462037 4.85913187,3.76868519 4.97568681,3.68507639" id="Fill-6"></path>
                            <path d="M6.2187619,5.8812037 C6.32180952,5.97325694 6.37395238,6.08919213 6.37395238,6.22584259 C6.37395238,6.39904167 6.30319048,6.53784722 6.16319048,6.63935648 C6.09057143,6.69169444 6.00342857,6.73070602 5.90266667,6.75669907 L5.90266667,5.69709722 C6.04414286,5.75858333 6.15066667,5.82006944 6.2187619,5.8812037" id="Fill-7"></path>
                            <path d="M6.85780952,7.20465046 C6.61395238,7.40137963 6.29328571,7.52012963 5.90266667,7.55949306 L5.90266667,8.05556019 L5.11066667,8.05556019 L5.11066667,7.53385185 C4.85542857,7.48991435 4.62685714,7.40912037 4.42752381,7.29283333 C4.1072381,7.10626389 3.86190476,6.82627778 3.69833333,6.46158333 L3.69109524,6.44579398 L4.57585714,6.08250694 L4.58385714,6.09763657 C4.71357143,6.33931481 4.86,6.51779167 5.019,6.6281412 C5.04828571,6.64850463 5.07909524,6.66640509 5.11066667,6.68329398 L5.11066667,5.41183333 C4.8147619,5.30187963 4.59528571,5.20419676 4.45604762,5.12058796 C4.26433333,5.0081713 4.11561905,4.86202083 4.01404762,4.68701852 C3.91247619,4.51170833 3.86114286,4.3111088 3.86114286,4.09084954 C3.86114286,3.71559954 4.01480952,3.4064537 4.31833333,3.17212037 C4.53404762,3.0055625 4.79952381,2.89771991 5.11066667,2.84925231 L5.11066667,2.10196296 L5.90266667,2.10196296 L5.90266667,2.8471412 C6.16052381,2.88509722 6.3872381,2.96131713 6.57895238,3.07654861 C6.86385714,3.24693287 7.07538095,3.50272917 7.20814286,3.83716435 L7.21457143,3.85370139 L6.32942857,4.15303935 L6.32219048,4.13826157 C6.21914286,3.93590278 6.09585714,3.78658565 5.95628571,3.69488426 C5.93914286,3.683625 5.92090476,3.67276157 5.90266667,3.66290972 L5.90266667,4.76785648 C5.96504762,4.79103472 6.01942857,4.81175 6.06504762,4.82969444 C6.5462381,5.01762731 6.87833333,5.21299306 7.05252381,5.41042593 C7.22790476,5.6085625 7.31652381,5.87064815 7.31652381,6.18894213 C7.31652381,6.6172338 7.16209524,6.95905787 6.85780952,7.20465046 Z M5.50666667,1.62032176 C3.43852381,1.62032176 1.76214286,3.16860185 1.76214286,5.07876157 C1.76214286,6.9889213 3.43852381,8.53724537 5.50666667,8.53724537 C7.57480952,8.53724537 9.25119048,6.9889213 9.25119048,5.07876157 C9.25119048,3.16860185 7.57480952,1.62032176 5.50666667,1.62032176 L5.50666667,1.62032176 Z" id="Fill-8"></path>
                            <polygon id="Fill-9" points="8.03438095 12.1700046 7.70566667 12.9730833 5.57152381 9.53078704 8.33161905 8.67618287 10.4658095 12.1184792"></polygon>
                            <polygon id="Fill-11" points="2.09895238 12.1700046 3.30766667 12.9730833 5.44180952 9.53078704 2.68166667 8.67618287 0.54752381 12.1184792"></polygon>
                        </g>
                    </g>
                </g>
            </g>
        </g>
    </g>
</svg>