<?xml version="1.0" encoding="UTF-8"?>
<svg width="13px" height="15px" viewBox="0 0 13 15" version="1.1" xmlns="http://www.w3.org/2000/svg" xmlns:xlink="http://www.w3.org/1999/xlink">
    <!-- Generator: Sketch 47.1 (45422) - http://www.bohemiancoding.com/sketch -->
    <title>Redunduncy Cover-icon-small</title>
    <desc>Created with Sketch.</desc>
    <defs></defs>
    <g id="Insurance-Quote" stroke="none" stroke-width="1" fill="none" fill-rule="evenodd">
        <g id="icons" transform="translate(-606.000000, -157.000000)" fill-rule="nonzero" fill="#8386D6">
            <g id="Group-6" transform="translate(38.000000, 47.000000)">
                <g id="Small" transform="translate(521.000000, 29.000000)">
                    <g id="Redunduncy-Cover-icon-small" transform="translate(47.000000, 81.000000)">
                        <g id="income-protection-large-copy-2">
                            <g id="Group">
                                <path d="M8.45128465,0.939231907 L6.52635542,0.0746268657 C6.38149473,0.00746268657 6.2137613,0.00746268657 6.0689006,0.0746268657 L0.320218373,2.65671642 C0.121987952,2.74626866 -8.8817842e-16,2.94029851 -8.8817842e-16,3.14925373 L-8.8817842e-16,8.84328358 C-8.8817842e-16,12.2537313 5.81730045,14.8432836 6.0689006,14.9552239 C6.14514307,14.9850746 6.22138554,15 6.29762801,15 C6.37387048,15 6.4577372,14.9776119 6.52635542,14.9552239 C6.59811133,14.9244959 7.15262529,14.6788063 7.89972176,14.2603034 C6.42734647,13.5138009 2.34375,11.1868201 2.34375,8.67169893 L2.34375,3.65975061 C2.34375,3.47582591 2.46573795,3.30503868 2.66396837,3.2262138 L8.4126506,0.953429901 C8.42536278,0.948241973 8.4382511,0.943509308 8.45128465,0.939231907 Z" id="Combined-Shape"></path>
                            </g>
                        </g>
                        <g id="Redunduncy-Cover-large-Copy-2" transform="translate(4.000000, 2.000000)">
                            <g id="Group">
                                <path d="M4.47831325,10.56 C4.42409639,10.56 4.36987952,10.5494925 4.31566265,10.5284776 C4.13674699,10.4496716 2.84217094e-14,8.62662687 2.84217094e-14,6.22567164 L2.84217094e-14,2.21707463 C2.84217094e-14,2.06997015 0.086746988,1.93337313 0.227710843,1.87032836 L4.31566265,0.0525373134 C4.4186747,0.00525373134 4.53795181,0.00525373134 4.64096386,0.0525373134 L8.72891566,1.87032836 C8.86987952,1.93337313 8.95662651,2.06471642 8.95662651,2.21707463 L8.95662651,6.22567164 C8.95662651,8.6318806 4.81445783,10.4549254 4.64096386,10.5284776 C4.59216867,10.5442388 4.53253012,10.56 4.47831325,10.56 Z M4.88381744,6.25330411 L4.88381744,5.12208219 C5.05811771,5.18187427 5.18157854,5.23973671 5.25420365,5.29567123 C5.37662883,5.39211007 5.43784051,5.52326492 5.43784051,5.68913973 C5.43784051,5.9070915 5.37247889,6.06042695 5.24175369,6.14915068 C5.16705358,6.19929888 5.04774269,6.23401634 4.88381744,6.25330411 Z M4.58813097,3.22996164 L4.58813097,4.24545753 C4.43665575,4.20109567 4.32460726,4.15287697 4.25198215,4.1008 C4.12125695,4.00628994 4.05589533,3.87802821 4.05589533,3.71601096 C4.05589533,3.56749515 4.09946974,3.45032372 4.18661988,3.36449315 C4.27377001,3.27866258 4.4076057,3.2338192 4.58813097,3.22996164 Z M4.89004242,7.48 L4.89004242,6.89847671 C5.21166791,6.87533139 5.48971416,6.79625273 5.72418951,6.66123836 C6.10806509,6.4413578 6.3,6.08839695 6.3,5.60234521 C6.3,5.23394884 6.15993939,4.94849416 5.87981397,4.7459726 C5.70966371,4.62445967 5.37766819,4.48462545 4.88381744,4.32646575 L4.88381744,3.22417534 C5.09131776,3.23767678 5.23449082,3.31289795 5.31334094,3.4498411 C5.35899101,3.52892094 5.39011559,3.65428955 5.40671562,3.82595068 L6.22530026,3.82595068 C6.21285024,3.36304426 6.03129019,3.02840651 5.68061466,2.8220274 C5.48763937,2.69279935 5.22204295,2.61564944 4.88381744,2.59057534 L4.88381744,2.2 L4.58813097,2.2 L4.58813097,2.58478904 C4.37648066,2.60021926 4.21567032,2.6243286 4.10569516,2.65711781 C3.92516989,2.70919478 3.7612471,2.80370342 3.61392188,2.94064658 C3.4997967,3.0467293 3.41109165,3.17306228 3.34780405,3.31964932 C3.28451646,3.46623635 3.25287314,3.62921554 3.25287314,3.80859178 C3.25287314,4.0805493 3.33431579,4.31296342 3.49720353,4.5058411 C3.66009128,4.69871877 3.93969376,4.8491611 4.33601935,4.9571726 L4.58813097,5.02660822 L4.58813097,6.26198356 C4.35158062,6.22340803 4.19284526,6.1395075 4.11192014,6.01027945 C4.06004506,5.92734205 4.0195831,5.76436286 3.99053306,5.52133699 L3.15016099,5.52133699 C3.14393598,6.05560815 3.31823363,6.43364273 3.67305917,6.65545205 C3.87433447,6.77889377 4.17935536,6.86182992 4.58813097,6.90426301 L4.58813097,7.48 L4.89004242,7.48 Z" id="Combined-Shape"></path>
                            </g>
                        </g>
                    </g>
                </g>
            </g>
        </g>
    </g>
</svg>