<?xml version="1.0" encoding="UTF-8"?>
<svg width="12px" height="14px" viewBox="0 0 12 14" version="1.1" xmlns="http://www.w3.org/2000/svg" xmlns:xlink="http://www.w3.org/1999/xlink">
    <!-- Generator: Sketch 47.1 (45422) - http://www.bohemiancoding.com/sketch -->
    <title>Income-protection-icon-small</title>
    <desc>Created with Sketch.</desc>
    <defs></defs>
    <g id="Insurance-Quote" stroke="none" stroke-width="1" fill="none" fill-rule="evenodd">
        <g id="icons" transform="translate(-608.000000, -76.000000)" fill-rule="nonzero" fill="#579EDC">
            <g id="Group-6" transform="translate(38.000000, 47.000000)">
                <g id="Small" transform="translate(521.000000, 29.000000)">
                    <g id="Income-protection-icon-small" transform="translate(49.000000, 0.000000)">
                        <g id="Group">
                            <g transform="translate(2.024096, 2.437811)" id="Shape">
                                <path d="M1.25783133,7.46666667 C2.40722892,8.47661692 3.95421687,9.14527363 3.95421687,9.14527363 C3.95421687,9.14527363 7.86506024,7.45970149 7.86506024,5.37711443 L7.86506024,3.00895522 L1.25783133,7.46666667 Z"></path>
                                <path d="M7.25060241,1.46268657 L3.94698795,0 L0.0361445783,1.72736318 L0.0361445783,5.37711443 C0.0361445783,5.65572139 0.108433735,5.92736318 0.231325301,6.1920398 L7.25060241,1.46268657 Z"></path>
                            </g>
                            <path d="M5.97108434,14 C5.89879518,14 5.82650602,13.9860697 5.75421687,13.958209 C5.51566265,13.8537313 2.84217094e-14,11.4368159 2.84217094e-14,8.25373134 L2.84217094e-14,2.93930348 C2.84217094e-14,2.74427861 0.115662651,2.56318408 0.303614458,2.47960199 L5.75421687,0.0696517413 C5.89156627,0.00696517413 6.05060241,0.00696517413 6.18795181,0.0696517413 L11.6385542,2.47960199 C11.826506,2.56318408 11.9421687,2.73731343 11.9421687,2.93930348 L11.9421687,8.25373134 C11.9421687,11.4437811 6.41927711,13.8606965 6.18795181,13.958209 C6.12289157,13.9791045 6.04337349,14 5.97108434,14 Z M1.04819277,3.25273632 L1.04819277,8.239801 C1.04819277,10.2527363 4.42409639,12.2238806 5.97108434,12.9343284 C7.5253012,12.2169154 10.8939759,10.2457711 10.8939759,8.239801 L10.8939759,3.25273632 L5.97108434,1.07263682 L1.04819277,3.25273632 Z" id="Shape"></path>
                        </g>
                    </g>
                </g>
            </g>
        </g>
    </g>
</svg>