<?xml version="1.0" encoding="UTF-8"?>
<svg width="12px" height="12px" viewBox="0 0 12 12" version="1.1" xmlns="http://www.w3.org/2000/svg" xmlns:xlink="http://www.w3.org/1999/xlink">
    <!-- Generator: Sketch 47.1 (45422) - http://www.bohemiancoding.com/sketch -->
    <title>Total &amp; Permanent-large-small</title>
    <desc>Created with Sketch.</desc>
    <defs></defs>
    <g id="Insurance-Quote" stroke="none" stroke-width="1" fill="none" fill-rule="evenodd">
        <g id="icons" transform="translate(-560.000000, -158.000000)" fill="#E37266">
            <g id="Group-6" transform="translate(38.000000, 47.000000)">
                <g id="Small" transform="translate(521.000000, 29.000000)">
                    <g id="Total-&amp;-Permanent-large-small" transform="translate(1.000000, 82.000000)">
                        <path d="M8.22337721,11.7590079 C8.5394736,11.3394897 8.72727273,10.815018 8.72727273,10.2460094 C8.72727273,8.86956524 7.62833529,7.75373681 6.27272727,7.75373681 C4.91711925,7.75373681 3.81818182,8.86956524 3.81818182,10.2460094 C3.81818182,10.9318902 4.09105018,11.5530597 4.53257435,12.0037035 C1.92822143,11.349037 3.00835201e-15,8.99192042 2.66453526e-15,6.18444356 L0,6 L0,6 C-2.94375954e-16,3.59623792 1.41353803,1.52262533 3.45472471,0.565051599 C3.3392027,0.740907381 3.27272727,0.947030381 3.27272727,1.16743384 C3.27272727,1.43869053 3.37736189,1.68499618 3.54627207,1.88300212 C3.53381557,1.93588 3.52733819,1.99081807 3.53306818,2.0475874 L3.97502489,6.31101001 C4.00367484,6.58890505 4.2577875,6.80110332 4.56147703,6.80110332 L7.90754275,6.80110332 L9.66266396,10.2129859 C9.75580213,10.3938866 9.94387536,10.5055919 10.1465345,10.5210741 C9.59531204,11.0482808 8.94374645,11.4714386 8.22337721,11.7590079 Z M11.3325473,8.93743162 C11.2766574,8.94433523 11.2209769,8.95882522 11.1671603,8.9814577 L10.4800597,9.26805126 L8.81362874,6.02830789 C8.71596976,5.83900048 8.50869356,5.71836565 8.28073956,5.71836565 L5.09710664,5.71836565 L5.04105238,5.17699682 L7.76528949,5.17699682 C8.09065334,5.17699682 8.35448206,4.93458262 8.35448206,4.63562799 C8.35448206,4.33667336 8.09065334,4.09425916 7.76528949,4.09425916 L4.92894385,4.09425916 L4.74458762,2.31609718 C5.34997364,2.22682283 5.81360467,1.74863277 5.81360467,1.16743384 C5.81360467,0.674202426 5.48060486,0.252270379 5.00991866,0.0813029741 C5.33200009,0.0278244588 5.66275067,6.19516969e-17 6,0 L6,0 L6,0 C9.3137085,-6.08718376e-16 12,2.6862915 12,6 L12,6.18444356 L12,6.18444356 C12,7.17680758 11.7590835,8.11290253 11.3325473,8.93743162 Z" id="Combined-Shape"></path>
                    </g>
                </g>
            </g>
        </g>
    </g>
</svg>