<?xml version="1.0" encoding="UTF-8"?>
<svg width="13px" height="13px" viewBox="0 0 13 13" version="1.1" xmlns="http://www.w3.org/2000/svg" xmlns:xlink="http://www.w3.org/1999/xlink">
    <!-- Generator: Sketch 47.1 (45422) - http://www.bohemiancoding.com/sketch -->
    <title>Trauma-icon-small</title>
    <desc>Created with Sketch.</desc>
    <defs></defs>
    <g id="Insurance-Quote" stroke="none" stroke-width="1" fill="none" fill-rule="evenodd">
        <g id="icons" transform="translate(-653.000000, -118.000000)" fill="#AB65DC">
            <g id="Group-6" transform="translate(38.000000, 47.000000)">
                <g id="Small" transform="translate(521.000000, 29.000000)">
                    <g id="Trauma-icon-small" transform="translate(94.000000, 42.000000)">
                        <path d="M-1.3020946e-05,6.32552634 C0.0103216681,5.93340765 0.0553888959,5.54994004 0.132225534,5.17808611 L9.77537931,0.884677432 C10.1094501,1.07995911 10.4245292,1.30418961 10.7171743,1.55392713 L-1.58491401e-05,6.3255276 Z M0.204293853,8.13193261 L11.9224232,2.9146853 C12.6034066,3.94239015 12.9999989,5.17488876 12.9999989,6.5 C12.9999989,10.0898509 10.089333,13 6.4988446,13 C3.4720652,13 0.928400209,10.9319086 0.204293853,8.13193261 Z M1.12699051,2.83781866 C2.2976741,1.12452795 4.26691224,0 6.4988446,0 C6.79448328,0 7.08551292,0.019730165 7.37068816,0.0579453637 L1.12699051,2.83781866 Z M4.54849831,9.53333333 L8.90421777,9.53333333 C8.20812535,8.95555556 7.4987613,8.66666667 6.77612562,8.66666667 C6.05348994,8.66666667 5.3109475,8.95555556 4.54849831,9.53333333 Z" id="Combined-Shape"></path>
                    </g>
                </g>
            </g>
        </g>
    </g>
</svg>