<svg xmlns="http://www.w3.org/2000/svg" width="35" height="35" viewBox="0 0 35 35">
  <g fill="#9A86A8" fill-rule="evenodd">
   	<path fill-rule="nonzero" d="M33,17.5 C33,8.93958638 26.0604136,2 17.5,2 C8.93958638,2 2,8.93958638 2,17.5 C2,26.0604136 8.93958638,33 17.5,33 C26.0604136,33 33,26.0604136 33,17.5 Z M0,17.5 C0,7.83501688 7.83501688,0 17.5,0 C27.1649831,0 35,7.83501688 35,17.5 C35,27.1649831 27.1649831,35 17.5,35 C7.83501688,35 0,27.1649831 0,17.5 Z"/>
   	<path d="M19,20 L19,17 L17,17 L17,20 L16,20 L16,20.9375 L17,20.953125 L17,21 L19,21 L19,20.984375 L20,21 L20,20 L19,20 Z M10,11.9918842 C10,10.8917969 10.8933973,10 11.9918842,10 L23.0081158,10 C24.1082031,10 25,10.8933973 25,11.9918842 L25,23.0081158 C25,24.1082031 24.1066027,25 23.0081158,25 L11.9918842,25 C10.8917969,25 10,24.1066027 10,23.0081158 L10,11.9918842 Z M19,15 C19.0001936,14.2915143 18.9672346,14.1977261 19,14 C18.8350097,14.039546 18.7568415,14.000001 18,14 C17.242964,13.9997677 17.1647958,14.0393127 17,14 C17.0329598,14.1979594 17.0000009,14.2917476 17,15 C16.9998064,15.7084857 17.0327654,15.8022739 17,16 C17.1649903,15.960454 17.2431585,15.999999 18,16 C18.757036,16.0002323 18.8352042,15.9606873 19,16 C18.9670402,15.8020406 18.9999991,15.7082524 19,15 Z M16,17 L16,18 L17,18 L17,17 L16,17 Z"/>
  </g>
</svg>