<svg xmlns="http://www.w3.org/2000/svg" width="16" height="15" viewBox="0 0 16 15">
  <path fill="#F99C5D" d="M15.781,13.4146875 L8.952,0.654375 C8.69,0.2184375 8.346,-1.33226763e-15 8.001,-1.33226763e-15 C7.656,-1.33226763e-15 7.311,0.2184375 7.05,0.654375 L0.221,13.4146875 C-0.302,14.2865625 0.143,15 1.21,15 L14.793,15 C15.86,15 16.305,14.2865625 15.782,13.4146875 L15.781,13.4146875 Z M8,13.125 C7.448,13.125 7,12.705 7,12.1875 C7,11.67 7.448,11.25 8,11.25 C8.552,11.25 9,11.67 9,12.1875 C9,12.705 8.552,13.125 8,13.125 Z M9,9.375 C9,9.8925 8.552,10.3125 8,10.3125 C7.448,10.3125 7,9.8925 7,9.375 L7,6.5625 C7,6.045 7.448,5.625 8,5.625 C8.552,5.625 9,6.045 9,6.5625 L9,9.375 Z"/>
</svg>
