<svg xmlns="http://www.w3.org/2000/svg" xmlns:xlink="http://www.w3.org/1999/xlink" version="1.1" width="408" height="408" style="enable-background:new 0 0 408 408;" xml:space="preserve"><rect id="backgroundrect" width="100%" height="100%" x="0" y="0" fill="none" stroke="none"/>
















<g class="currentLayer" style=""><title>Layer 1</title><g id="svg_1" class="selected" fill="#c9c9c9" fill-opacity="1">
	<g id="more-vert" fill="#c9c9c9" fill-opacity="1">
		<path d="M204,102c28.05,0,51-22.95,51-51S232.05,0,204,0s-51,22.95-51,51S175.95,102,204,102z M204,153c-28.05,0-51,22.95-51,51    s22.95,51,51,51s51-22.95,51-51S232.05,153,204,153z M204,306c-28.05,0-51,22.95-51,51s22.95,51,51,51s51-22.95,51-51    S232.05,306,204,306z" id="svg_2" fill="#c9c9c9" fill-opacity="1"/>
	</g>
</g><g id="svg_3">
</g><g id="svg_4">
</g><g id="svg_5">
</g><g id="svg_6">
</g><g id="svg_7">
</g><g id="svg_8">
</g><g id="svg_9">
</g><g id="svg_10">
</g><g id="svg_11">
</g><g id="svg_12">
</g><g id="svg_13">
</g><g id="svg_14">
</g><g id="svg_15">
</g><g id="svg_16">
</g><g id="svg_17">
</g></g></svg>