<svg xmlns="http://www.w3.org/2000/svg" width="16" height="16" viewBox="0 0 32 32">
  <g fill="#9A86A8" fill-rule="evenodd">
      <path d="M16,32 C7.178,32 0,24.822 0,16 C0,7.178 7.178,0 16,0 C24.822,0 32,7.178 32,16 C32,24.822 24.822,32 16,32 L16,32 L16,32 Z M16,2 C8.28,2 2,8.28 2,16 C2,23.72 8.28,30 16,30 C23.72,30 30,23.72 30,16 C30,8.28 23.72,2 16,2 L16,2 L16,2 Z"/>
      <path d="M8,17.6666667 C8,17.298 8.32509091,17 8.72727273,17 C9.12945455,17 9.45454545,17.298 9.45454545,17.6666667 C9.45454545,20.9753333 12.3905455,23.6666667 16,23.6666667 C19.6094545,23.6666667 22.5454545,20.9753333 22.5454545,17.6666667 C22.5454545,17.298 22.8705455,17 23.2727273,17 C23.6749091,17 24,17.298 24,17.6666667 C24,21.71 20.4109091,25 16,25 C11.5890909,25 8,21.71 8,17.6666667 Z" transform="matrix(1 0 0 -1 0 42)"/>
      <path d="M12 14C11.447 14 11 13.553 11 13L11 10C11 9.447 11.447 9 12 9 12.553 9 13 9.447 13 10L13 13C13 13.553 12.553 14 12 14M20 14C19.447 14 19 13.553 19 13L19 10C19 9.447 19.447 9 20 9 20.553 9 21 9.447 21 10L21 13C21 13.553 20.553 14 20 14"/>
  </g>
</svg>