<svg xmlns="http://www.w3.org/2000/svg" width="177" height="123" viewBox="0 0 177 123">
  <g fill="none">
    <path fill="#EEEAF2" d="M22.5,105 L37.5,105 L37.5,87 L43.5,87 L43.5,105 L43.5,109.5072 C43.5,113.6382 46.863225,117 51,117 C55.136625,117 58.5,113.6382 58.5,109.5072 L58.5,105 L58.5,87 L64.5,87 L64.5,105 L112.5,105 L112.5,87 L118.5,87 L118.5,105 L118.5,109.5072 C118.5,113.6382 121.863225,117 126,117 C130.136625,117 133.5,113.6382 133.5,109.5072 L133.5,105 L133.5,87 L139.5,87 L139.5,105 L154.5,105 L160.5,105 L160.5,55.5 C160.5,24.8964 135.594525,0 104.982225,0 L72.017625,0 C41.405325,0 16.5,24.8964 16.5,55.5 L16.5,105 L22.5,105 Z M49.5,75 L43.5,75 L43.5,66 L49.5,66 L49.5,75 Z M78.319125,46.9716 C73.640625,51.6504 67.494,53.9898 61.347525,53.9898 C57.252,53.9898 53.162025,52.9248 49.5,50.8446 L49.5,60 L43.5,60 L43.5,45 L43.529325,45 C43.488225,44.1825 43.755,43.3536 44.379,42.7296 C45.550725,41.5575 47.449125,41.5575 48.621,42.7296 C55.637625,49.7418 67.054725,49.7475 74.077125,42.7296 C75.249,41.5575 77.147325,41.5575 78.319125,42.7296 C79.491225,43.9014 79.491225,45.7998 78.319125,46.9716 Z M98.379,46.9716 C97.206825,45.7998 97.206825,43.9014 98.379,42.7296 C99.550725,41.5575 101.449125,41.5575 102.621,42.7296 C109.637625,49.7418 121.054725,49.7475 128.077125,42.7296 C129.249,41.5575 131.147325,41.5575 132.319125,42.7296 C133.491225,43.9014 133.491225,45.7998 132.319125,46.9716 C131.733225,47.5563 131.127,48.1041 130.5,48.6153 L130.5,57 L124.5,57 L124.5,52.1808 C121.576125,53.3832 118.461825,53.9898 115.347525,53.9898 C109.204125,53.9898 103.057425,51.6504 98.379,46.9716 Z M124.5,78 L124.5,63 L130.5,63 L130.5,78 L124.5,78 Z"/>
    <path fill="#7B5C8D" d="M177 105L160.5 105 154.5 105 139.5 105 139.5 109.5072C139.5 111.0909 139.174725 112.5879 138.670725 114L177 114 177 105zM112.5 109.5072L112.5 105 64.5 105 64.5 109.5072C64.5 111.0909 64.174725 112.5879 63.670725 114L113.326125 114C112.825125 112.5879 112.5 111.0909 112.5 109.5072zM37.5 109.5072L37.5 105 22.5 105 16.5 105 0 105 0 114 38.326125 114C37.825125 112.5879 37.5 111.0909 37.5 109.5072z"/>
    <path fill="#9A86A8" d="M64.5 109.5072L64.5 105 64.5 87 58.5 87 58.5 105 58.5 109.5072C58.5 113.6382 55.136625 117 51 117 46.863225 117 43.5 113.6382 43.5 109.5072L43.5 105 43.5 87 37.5 87 37.5 105 37.5 109.5072C37.5 111.0909 37.825125 112.5879 38.326125 114 40.189425 119.2266 45.140625 123 51 123 56.859225 123 61.810425 119.2266 63.670725 114 64.174725 112.5879 64.5 111.0909 64.5 109.5072zM139.5 109.5072L139.5 105 139.5 87 133.5 87 133.5 105 133.5 109.5072C133.5 113.6382 130.136625 117 126 117 121.863225 117 118.5 113.6382 118.5 109.5072L118.5 105 118.5 87 112.5 87 112.5 105 112.5 109.5072C112.5 111.0909 112.825125 112.5879 113.326125 114 115.189425 119.2266 120.140625 123 126 123 131.859225 123 136.810425 119.2266 138.670725 114 139.174725 112.5879 139.5 111.0909 139.5 109.5072zM74.077125 42.7296C67.054725 49.7475 55.637625 49.7418 48.621 42.7296 47.449125 41.5575 45.550725 41.5575 44.379 42.7296 43.755 43.3536 43.488225 44.1825 43.529325 45L43.5 45 43.5 60 49.5 60 49.5 50.8446C53.162025 52.9248 57.252 53.9898 61.347525 53.9898 67.494 53.9898 73.640625 51.6504 78.319125 46.9716 79.491225 45.7998 79.491225 43.9014 78.319125 42.7296 77.147325 41.5575 75.249 41.5575 74.077125 42.7296z"/>
    <rect width="6" height="9" x="43.5" y="66" fill="#9A86A8"/>
    <path fill="#9A86A8" d="M124.5,57 L130.5,57 L130.5,48.6153 C131.127,48.1041 131.733225,47.5563 132.319125,46.9716 C133.491225,45.7998 133.491225,43.9014 132.319125,42.7296 C131.147325,41.5575 129.249,41.5575 128.077125,42.7296 C121.054725,49.7475 109.637625,49.7418 102.621,42.7296 C101.449125,41.5575 99.550725,41.5575 98.379,42.7296 C97.206825,43.9014 97.206825,45.7998 98.379,46.9716 C103.057425,51.6504 109.204125,53.9898 115.347525,53.9898 C118.461825,53.9898 121.576125,53.3832 124.5,52.1808 L124.5,57 Z"/>
    <rect width="6" height="15" x="124.5" y="63" fill="#9A86A8"/>
  </g>
</svg>
