<svg width="16px" height="16px" viewBox="0 0 16 16" version="1.1" xmlns="http://www.w3.org/2000/svg" xmlns:xlink="http://www.w3.org/1999/xlink">
    <!-- Generator: Sketch 42 (36781) - http://www.bohemiancoding.com/sketch -->
    <title>Smile</title>
    <desc>Created with Sketch.</desc>
    <defs></defs>
    <g id="Page-1" stroke="none" stroke-width="1" fill="none" fill-rule="evenodd">
        <g id="Pipeline---lead-list-Copy-3" transform="translate(-601.000000, -544.000000)" fill="#22C8CB">
            <g id="Group-19" transform="translate(588.000000, 423.000000)">
                <g id="Smile" transform="translate(13.000000, 121.000000)">
                    <path d="M8,16 C12.418,16 16,12.418 16,8 C16,3.582 12.418,0 8,0 C3.582,0 0,3.582 0,8 C0,12.418 3.582,16 8,16 Z M8,1.5 C11.59,1.5 14.5,4.41 14.5,8 C14.5,11.59 11.59,14.5 8,14.5 C4.41,14.5 1.5,11.59 1.5,8 C1.5,4.41 4.41,1.5 8,1.5 Z M4,5 C4,4.448 4.448,4 5,4 C5.552,4 6,4.448 6,5 C6,5.552 5.552,6 5,6 C4.448,6 4,5.552 4,5 Z M10,5 C10,4.448 10.448,4 11,4 C11.552,4 12,4.448 12,5 C12,5.552 11.552,6 11,6 C10.448,6 10,5.552 10,5 Z M11.002,9.801 L12.288,10.573 C11.414,12.027 9.821,13 8,13 C6.179,13 4.587,12.027 3.712,10.573 L4.998,9.801 C5.61,10.819 6.725,11.5 8,11.5 C9.275,11.5 10.389,10.819 11.002,9.801 L11.002,9.801 Z" id="Shape"></path>
                </g>
            </g>
        </g>
    </g>
</svg>